# xmcd CD database file
#
# Track frame offsets:
#	225
#	13304
#	26021
#	41666
#	52870
#	78829
#	85783
#	97536
#	108948
#	122957
#	136372
#	152112
#	164613
#	177710
#	189606
#	202672
#
# Disc length: 2868 seconds
#
# Revision: 0
# Processed by: cddbd v1.5.1PL0 Copyright (c) Steve Scherf et al.
# Submitted via: CDex 1.50
#
DISCID=ca0b3110
DTITLE=PABERKY MARKO CERMAKA - MASTER SERIE
DYEAR=1998
DGENRE=Country
TTITLE0=CO SI TU POCIT (ROCK ABOUT MY SARO JANE)
TTITLE1=ZEN JE DAL (THE BIG CORRAL)
TTITLE2=BEZTE TELATKA MALY (WHOOPEE TI YL YO)
TTITLE3=JOE BOWERS
TTITLE4=CESTA DO MEXIKA (TRAIL TO MEXICO)
TTITLE5=TEXASKA STEZKA (THE OLD CHISHOLM TRAIL)
TTITLE6=VITR
TTITLE7=LASKA LEHKOMYSLNA (CARELESS LOVE)
TTITLE8=KALIFORNIE (BANKS OF THE SACRAMENTO)
TTITLE9=V UDOLI DOLE (DOWN IN THE VALLEY)
TTITLE10=JSEM UNAVENY (THE QUILTING PARTY)
TTITLE11=SLADKA BETSY Z PIKE (SWEET BETSY FROM PIKE)
TTITLE12=DVA TULACI (TWO HOBOES)
TTITLE13=TAK SE TOULAM (HALLELUJAH I'M A BUM)
TTITLE14=AT NEPOHRBIVAS (OH BURRY ME NOT)
TTITLE15=PULNOCNI RYCHLIK (THE MIDNIGHT SPECIAL)
EXTD=YEAR: 1998
EXTT0=
EXTT1=
EXTT2=
EXTT3=
EXTT4=
EXTT5=
EXTT6=
EXTT7=
EXTT8=
EXTT9=
EXTT10=
EXTT11=
EXTT12=
EXTT13=
EXTT14=
EXTT15=
PLAYORDER=
